:SAMPLES-PER-SECOND 30
:FULLY-SPECIFIED
:DEGREES
142
root  2.31817 35.7843 -17.431 -167.475 -85.9115 166.769
RightUpLeg  -29.2583 -30.1097 -10.8534
RightLeg  47.0395 -4.27958 -5.21678
RightFoot  -11.3403 -0.0782596 14.0553
RightToes  -1.33073e-015 0 -3.6325e-017
Spine  27.4971 1.23036 0.28881
Spine1  -14.7793 1.36479 -0.896529
HEad  -24.1899 6.77334 -8.00048
LeftShoulder1  -0.171999 6.8602 3.49934
LeftArm  -59.8226 -3.4145 -23.4947
LeftForeArm  49.4138 -78.4231 -85.6563
LeftHand  0.956009 7.65421 45.2117
RightShoulder  0.0789102 -2.91105 4.9788
RightArm  -68.0229 -5.544 19.0973
RightForeArm  45.8685 77.8437 98.6229
RightHand  -2.52023 1.96737 -38.5748
LeftUpLeg  -23.2283 25.1724 18.4908
LeftLeg  46.1639 10.3364 11.6878
LeftFoot  -0.722863 1.67665 -18.0893
LeftToes  -4.0021e-011 8.38769e-011 -3.99229e-011
143
root  1.79558 37.4572 -18.1214 -153.04 -86.2908 153.635
RightUpLeg  -23.7942 -29.2968 -10.0526
RightLeg  36.2657 -7.08358 -5.78209
RightFoot  -7.72789 -0.484428 13.6753
RightToes  -1.33073e-015 0 -3.6325e-017
Spine  24.4103 1.19358 -1.45602
Spine1  -15.5836 0.905302 0.444296
HEad  -19.823 8.376 -7.69676
LeftShoulder1  -0.0685956 4.01462 -8.25267
LeftArm  -54.7844 1.441 -24.0609
LeftForeArm  66.0012 -78.363 -99.1823
LeftHand  0.857954 7.42084 45.1432
RightShoulder  0.507409 -0.982927 13.4294
RightArm  -63.7455 -8.14092 23.2987
RightForeArm  53.9435 77.7089 102.419
RightHand  -2.56434 2.14283 -38.3532
LeftUpLeg  -20.6419 23.814 15.931
LeftLeg  38.5913 14.3474 12.4331
LeftFoot  3.91583 1.93044 -14.3716
LeftToes  -4.0021e-011 8.38769e-011 -3.99229e-011
144
root  1.28956 38.7363 -18.6916 -133.309 -87.0193 134.94
RightUpLeg  -18.7099 -28.2872 -9.52229
RightLeg  26.6416 -10.8785 -6.1065
RightFoot  -3.57616 -0.895112 12.8014
RightToes  -1.33073e-015 0 -3.6325e-017
Spine  21.6358 1.01933 -2.54189
Spine1  -16.2408 0.573566 1.05322
HEad  -15.424 8.83172 -6.69366
LeftShoulder1  0.657967 0.802464 -18.0422
LeftArm  -52.4699 7.14791 -23.3407
LeftForeArm  69.2595 -78.0381 -104.667
LeftHand  0.7373 7.15071 44.6574
RightShoulder  0.931611 0.152392 19.2613
RightArm  -62.0185 -12.4045 26.5935
RightForeArm  51.9311 77.8613 99.4384
RightHand  -2.63241 2.44891 -37.878
LeftUpLeg  -20.3826 24.4853 12.3919
LeftLeg  35.9847 11.7081 9.30837
LeftFoot  2.04618 1.70528 -14.7284
LeftToes  -4.0021e-011 8.38769e-011 -3.99229e-011
145
root  0.978526 39.4417 -19.1578 -107.216 -87.85 108.689
RightUpLeg  -14.3317 -26.0408 -9.23067
RightLeg  20.404 -14.7909 -6.16253
RightFoot  -0.084634 -1.1869 11.9781
RightToes  -1.33073e-015 0 -3.6325e-017
Spine  20.6816 0.964936 -2.3098
Spine1  -16.7632 0.582976 0.968526
HEad  -12.59 7.76422 -5.54908
LeftShoulder1  1.34564 -1.25487 -22.199
LeftArm  -51.5893 11.1666 -25.0862
LeftForeArm  72.2814 -77.5009 -110.853
LeftHand  0.541196 6.7032 43.7011
RightShoulder  1.07254 0.46578 20.8031
RightArm  -62.8524 -17.1881 29.7495
RightForeArm  57.7056 77.5553 105.462
RightHand  -2.83154 3.09528 -37.6513
LeftUpLeg  -21.1918 26.4106 9.24748
LeftLeg  38.8281 4.51799 4.1979
LeftFoot  -3.4759 1.31734 -18.7873
LeftToes  -4.0021e-011 8.38769e-011 -3.99229e-011
146
root  0.894095 39.5647 -19.5625 -65.1927 -88.485 65.7327
RightUpLeg  -11.906 -23.3714 -8.68189
RightLeg  19.1949 -17.9796 -6.83641
RightFoot  0.654122 -1.23522 11.7588
RightToes  -1.33073e-015 0 -3.6325e-017
Spine  21.1066 0.793108 -0.512564
Spine1  -16.36 0.701303 0.000602512
HEad  -12.5607 5.80439 -5.09542
LeftShoulder1  1.25278 -1.15224 -20.3402
LeftArm  -51.5712 11.869 -29.8204
LeftForeArm  82.9435 -76.1008 -122.649
LeftHand  0.345116 6.25209 42.0508
RightShoulder  0.873321 -0.0463975 18.8232
RightArm  -65.3284 -20.4348 32.5311
RightForeArm  72.8468 75.9455 121.384
RightHand  -2.85495 3.10975 -37.8909
LeftUpLeg  -22.28 27.8873 7.01366
LeftLeg  44.6177 -0.314264 0.122229
LeftFoot  -7.48971 0.790592 -21.6074
LeftToes  -4.0021e-011 8.38769e-011 -3.99229e-011
147
root  0.963721 39.22 -19.9319 -13.4888 -88.297 12.9697
RightUpLeg  -12.3554 -23.7051 -7.54489
RightLeg  23.1491 -17.8021 -8.36187
RightFoot  -1.8899 -0.993473 11.8271
RightToes  -1.33073e-015 0 -3.6325e-017
Spine  21.6864 0.302658 2.40182
Spine1  -14.3763 0.798196 -2.13522
HEad  -14.5782 3.89097 -5.35734
LeftShoulder1  0.678997 0.527975 -15.9809
LeftArm  -52.4331 8.55853 -33.4047
LeftForeArm  94.6091 -73.6374 -134.74
LeftHand  0.20105 5.91732 39.5005
RightShoulder  0.489952 -1.26876 15.2065
RightArm  -68.0884 -20.9262 33.2516
RightForeArm  85.0805 73.0522 135.308
RightHand  -2.58291 2.24666 -38.1149
LeftUpLeg  -23.6727 29.1598 5.1982
LeftLeg  50.454 -0.840211 -0.583651
LeftFoot  -7.63519 0.727673 -21.0537
LeftToes  -4.0021e-011 8.38769e-011 -3.99229e-011
